HIERARCHY
ROOT Hips
{
	OFFSET 0.000000 121.760803 0.000000
	CHANNELS 6 Xposition Yposition Zposition Xrotation Yrotation Zrotation 
	JOINT Spine
	{
		OFFSET 0.072000 7.257294 -0.789700
		CHANNELS 3 Xrotation Yrotation Zrotation
		JOINT Spine1
		{
			OFFSET 0.000000 12.508769 -0.658067
			CHANNELS 3 Xrotation Yrotation Zrotation
			JOINT Spine1_split
			{
				OFFSET 0.000000 12.508769 -0.658067
				CHANNELS 3 Xrotation Yrotation Zrotation
				JOINT Spine2
				{
					OFFSET 0.000000 12.508769 -0.658067
					CHANNELS 3 Xrotation Yrotation Zrotation
					JOINT Neck
					{
						OFFSET 0.000000 14.033295 7.520400
						CHANNELS 3 Xrotation Yrotation Zrotation
						JOINT Head
						{
							OFFSET 0.000000 8.198502 5.703100
							CHANNELS 3 Xrotation Yrotation Zrotation
							JOINT HeadTop_End
							{
								OFFSET 0.000000 17.760803 13.332701
								CHANNELS 3 Xrotation Yrotation Zrotation
								End Site
								{
									OFFSET 0.000000 0.000000 0.000000
								}
							}
						}
					}
					JOINT LeftShoulder
					{
						OFFSET 6.292450 5.785301 -0.669000
						CHANNELS 3 Xrotation Yrotation Zrotation
						JOINT LeftShoulder_split
						{
							OFFSET 6.292450 5.785301 -0.669000
							CHANNELS 3 Xrotation Yrotation Zrotation
							JOINT LeftArm
							{
								OFFSET 13.907140 -6.093903 1.965100
								CHANNELS 3 Xrotation Yrotation Zrotation
								JOINT LeftForeArm
								{
									OFFSET 34.140198 0.000000 0.000000
									CHANNELS 3 Xrotation Yrotation Zrotation
									JOINT LeftHand
									{
										OFFSET 40.960209 0.000000 0.000000
										CHANNELS 3 Xrotation Yrotation Zrotation
										JOINT LeftHandThumb1
										{
											OFFSET 10.006996 -7.170425 9.573125
											CHANNELS 3 Xrotation Yrotation Zrotation
											JOINT LeftHandThumb2
											{
												OFFSET 1.835007 -1.059448 1.059443
												CHANNELS 3 Xrotation Yrotation Zrotation
												JOINT LeftHandThumb3
												{
													OFFSET 2.112267 -1.219513 1.219518
													CHANNELS 3 Xrotation Yrotation Zrotation
													JOINT LeftHandThumb4
													{
														OFFSET 4.843811 -2.796570 2.796576
														CHANNELS 3 Xrotation Yrotation Zrotation
														End Site
														{
															OFFSET 0.000000 0.000000 0.000000
														}
													}
												}
											}
										}
										JOINT LeftHandIndex1
										{
											OFFSET 18.389847 -0.922348 4.596882
											CHANNELS 3 Xrotation Yrotation Zrotation
											JOINT LeftHandIndex2
											{
												OFFSET 4.711273 0.000000 0.000000
												CHANNELS 3 Xrotation Yrotation Zrotation
												JOINT LeftHandIndex3
												{
													OFFSET 2.886131 0.000000 0.000000
													CHANNELS 3 Xrotation Yrotation Zrotation
													JOINT LeftHandIndex4
													{
														OFFSET 6.145912 0.000000 0.000000
														CHANNELS 3 Xrotation Yrotation Zrotation
														End Site
														{
															OFFSET 0.000000 0.000000 0.000000
														}
													}
												}
											}
										}
										JOINT LeftHandMiddle1
										{
											OFFSET 18.013008 0.000000 0.000000
											CHANNELS 3 Xrotation Yrotation Zrotation
											JOINT LeftHandMiddle2
											{
												OFFSET 4.946693 0.000000 0.000000
												CHANNELS 3 Xrotation Yrotation Zrotation
												JOINT LeftHandMiddle3
												{
													OFFSET 3.342232 0.000000 0.000000
													CHANNELS 3 Xrotation Yrotation Zrotation
													JOINT LeftHandMiddle4
													{
														OFFSET 4.461754 0.000000 0.000000
														CHANNELS 3 Xrotation Yrotation Zrotation
														End Site
														{
															OFFSET 0.000000 0.000000 0.000000
														}
													}
												}
											}
										}
										JOINT LeftHandRing1
										{
											OFFSET 15.849892 -0.102921 -4.126150
											CHANNELS 3 Xrotation Yrotation Zrotation
											JOINT LeftHandRing2
											{
												OFFSET 3.527054 0.000000 0.000000
												CHANNELS 3 Xrotation Yrotation Zrotation
												JOINT LeftHandRing3
												{
													OFFSET 2.961098 0.000000 0.000000
													CHANNELS 3 Xrotation Yrotation Zrotation
													JOINT LeftHandRing4
													{
														OFFSET 4.927200 0.000000 0.000000
														CHANNELS 3 Xrotation Yrotation Zrotation
														End Site
														{
															OFFSET 0.000000 0.000000 0.000000
														}
													}
												}
											}
										}
										JOINT LeftHandPinky1
										{
											OFFSET 12.791824 -0.832031 -6.799156
											CHANNELS 3 Xrotation Yrotation Zrotation
											JOINT LeftHandPinky2
											{
												OFFSET 3.327133 0.000000 0.000000
												CHANNELS 3 Xrotation Yrotation Zrotation
												JOINT LeftHandPinky3
												{
													OFFSET 3.014900 0.000000 0.000000
													CHANNELS 3 Xrotation Yrotation Zrotation
													JOINT LeftHandPinky4
													{
														OFFSET 5.847786 0.000000 0.000000
														CHANNELS 3 Xrotation Yrotation Zrotation
														End Site
														{
															OFFSET 0.000000 0.000000 0.000000
														}
													}
												}
											}
										}
									}
								}
							}
						}
					}
					JOINT RightShoulder
					{
						OFFSET -6.292450 5.785301 -0.669000
						CHANNELS 3 Xrotation Yrotation Zrotation
						JOINT RightShoulder_split
						{
							OFFSET -6.292450 5.785301 -0.669000
							CHANNELS 3 Xrotation Yrotation Zrotation
							JOINT RightArm
							{
								OFFSET -13.907140 -6.093903 1.965100
								CHANNELS 3 Xrotation Yrotation Zrotation
								JOINT RightForeArm
								{
									OFFSET -34.140198 0.000000 0.000000
									CHANNELS 3 Xrotation Yrotation Zrotation
									JOINT RightHand
									{
										OFFSET -40.960209 0.000000 0.000000
										CHANNELS 3 Xrotation Yrotation Zrotation
										JOINT RightHandThumb1
										{
											OFFSET -10.007050 -7.170456 9.573117
											CHANNELS 3 Xrotation Yrotation Zrotation
											JOINT RightHandThumb2
											{
												OFFSET -1.835007 -1.059448 1.059443
												CHANNELS 3 Xrotation Yrotation Zrotation
												JOINT RightHandThumb3
												{
													OFFSET -2.112267 -1.219513 1.219518
													CHANNELS 3 Xrotation Yrotation Zrotation
													JOINT RightHandThumb4
													{
														OFFSET -4.843834 -2.796585 2.796590
														CHANNELS 3 Xrotation Yrotation Zrotation
														End Site
														{
															OFFSET 0.000000 0.000000 0.000000
														}
													}
												}
											}
										}
										JOINT RightHandIndex1
										{
											OFFSET -18.389870 -0.922424 4.596786
											CHANNELS 3 Xrotation Yrotation Zrotation
											JOINT RightHandIndex2
											{
												OFFSET -4.711273 0.000000 0.000000
												CHANNELS 3 Xrotation Yrotation Zrotation
												JOINT RightHandIndex3
												{
													OFFSET -2.886131 0.000000 0.000000
													CHANNELS 3 Xrotation Yrotation Zrotation
													JOINT RightHandIndex4
													{
														OFFSET -6.145920 0.000000 0.000000
														CHANNELS 3 Xrotation Yrotation Zrotation
														End Site
														{
															OFFSET 0.000000 0.000000 0.000000
														}
													}
												}
											}
										}
										JOINT RightHandMiddle1
										{
											OFFSET -18.013008 0.000000 0.000000
											CHANNELS 3 Xrotation Yrotation Zrotation
											JOINT RightHandMiddle2
											{
												OFFSET -4.946693 0.000000 0.000000
												CHANNELS 3 Xrotation Yrotation Zrotation
												JOINT RightHandMiddle3
												{
													OFFSET -3.342232 0.000000 0.000000
													CHANNELS 3 Xrotation Yrotation Zrotation
													JOINT RightHandMiddle4
													{
														OFFSET -4.461754 0.000000 0.000000
														CHANNELS 3 Xrotation Yrotation Zrotation
														End Site
														{
															OFFSET 0.000000 0.000000 0.000000
														}
													}
												}
											}
										}
										JOINT RightHandRing1
										{
											OFFSET -15.849876 -0.102936 -4.126237
											CHANNELS 3 Xrotation Yrotation Zrotation
											JOINT RightHandRing2
											{
												OFFSET -3.527054 0.000000 0.000000
												CHANNELS 3 Xrotation Yrotation Zrotation
												JOINT RightHandRing3
												{
													OFFSET -2.961098 0.000000 0.000000
													CHANNELS 3 Xrotation Yrotation Zrotation
													JOINT RightHandRing4
													{
														OFFSET -4.927200 0.000000 0.000000
														CHANNELS 3 Xrotation Yrotation Zrotation
														End Site
														{
															OFFSET 0.000000 0.000000 0.000000
														}
													}
												}
											}
										}
										JOINT RightHandPinky1
										{
											OFFSET -12.791786 -0.832077 -6.799222
											CHANNELS 3 Xrotation Yrotation Zrotation
											JOINT RightHandPinky2
											{
												OFFSET -3.327133 0.000000 0.000000
												CHANNELS 3 Xrotation Yrotation Zrotation
												JOINT RightHandPinky3
												{
													OFFSET -3.014900 0.000000 0.000000
													CHANNELS 3 Xrotation Yrotation Zrotation
													JOINT RightHandPinky4
													{
														OFFSET -5.847786 0.000000 0.000000
														CHANNELS 3 Xrotation Yrotation Zrotation
														End Site
														{
															OFFSET 0.000000 0.000000 0.000000
														}
													}
												}
											}
										}
									}
								}
							}
						}
					}
				}
			}
		}
	}
	JOINT LeftUpLeg
	{
		OFFSET 13.026900 -6.336304 -1.092800
		CHANNELS 3 Xrotation Yrotation Zrotation
		JOINT LeftLeg
		{
			OFFSET 0.524474 -46.096886 9.782700
			CHANNELS 3 Xrotation Yrotation Zrotation
			JOINT LeftFoot
			{
				OFFSET -0.524474 -53.427422 -12.948200
				CHANNELS 3 Xrotation Yrotation Zrotation
				JOINT LeftToeBase
				{
					OFFSET 0.192200 -14.009700 16.364100
					CHANNELS 3 Xrotation Yrotation Zrotation
					JOINT LeftToe_End
					{
						OFFSET -1.784700 -0.561700 9.474800
						CHANNELS 3 Xrotation Yrotation Zrotation
						End Site
						{
							OFFSET 0.000000 0.000000 0.000000
						}
					}
				}
			}
		}
	}
	JOINT RightUpLeg
	{
		OFFSET -12.883000 -6.336304 -1.092800
		CHANNELS 3 Xrotation Yrotation Zrotation
		JOINT RightLeg
		{
			OFFSET -0.524587 -46.096825 9.782800
			CHANNELS 3 Xrotation Yrotation Zrotation
			JOINT RightFoot
			{
				OFFSET 0.524587 -53.427383 -12.948300
				CHANNELS 3 Xrotation Yrotation Zrotation
				JOINT RightToeBase
				{
					OFFSET -0.192200 -14.009700 16.364100
					CHANNELS 3 Xrotation Yrotation Zrotation
					JOINT RightToe_End
					{
						OFFSET 1.784700 -0.561700 9.474800
						CHANNELS 3 Xrotation Yrotation Zrotation
						End Site
						{
							OFFSET 0.000000 0.000000 0.000000
						}
					}
				}
			}
		}
	}
}
MOTION
Frames: 4
Frame Time: 0.016667
1.001998 94.070381 4.920856 0.945384 -43.552800 5.067490 9.275729 13.268030 -4.297425 1.751730 3.638378 -1.540306 0.000000 0.000000 0.000000 1.716103 3.636634 -1.514276 -4.807232 12.764793 2.112759 4.999611 12.340596 0.595641 -0.000001 -0.000000 -0.000000 0.177122 3.280463 -2.501104 0.000000 0.000000 0.000000 0.608043 -3.857616 -44.118869 -0.000011 -132.706395 -0.000024 -9.689286 -8.659003 15.986225 -6.141207 -11.690797 -6.761691 9.914120 42.595512 3.409869 -0.422809 8.108100 27.509106 -0.000001 -0.000000 -0.000001 0.255322 3.378228 -45.814354 5.654099 5.847752 -88.067455 2.162141 4.544824 -50.866362 0.000000 -0.000001 -0.000002 -0.461465 3.841596 -39.722690 6.450753 5.820357 -95.892864 2.182887 4.561567 -51.127719 0.000002 -0.000003 -0.000002 0.469732 4.966831 -39.799458 8.181044 5.368609 -113.503011 3.200496 5.218131 -63.022982 -0.000000 -0.000001 -0.000000 -3.762424 9.063700 -45.253835 5.342532 5.829008 -85.005311 8.716845 5.103329 -119.369167 0.000001 -0.000001 -0.000000 0.028592 13.490905 -3.638381 0.000000 0.000000 0.000000 -50.086696 20.453903 65.076765 -0.000090 105.790990 0.000091 -20.892253 14.931910 -20.970351 -7.341079 13.749662 7.412313 9.855756 -44.489093 -3.903267 -0.115778 -14.513081 -28.973871 0.000000 -0.000000 0.000001 -0.124367 -2.384792 45.108878 4.500595 -4.654547 88.071178 1.723231 -3.618379 50.920109 0.000000 -0.000001 0.000001 -0.761616 -2.932905 39.031058 5.133886 -4.632760 95.881649 1.739744 -3.631700 51.181374 -0.000001 0.000003 0.000001 0.154761 -4.068818 39.122675 6.509729 -4.273601 113.462857 2.549582 -4.153934 63.067330 0.000001 0.000000 0.000002 -4.198870 -8.025518 44.637776 4.252914 -4.639634 85.014805 6.935982 -4.062635 119.322285 -0.000001 0.000001 -0.000000 -39.262065 10.883558 20.865914 59.531102 -9.512814 -0.853846 -21.934389 -9.975636 -9.735886 -1.594214 0.000011 -0.000005 0.000000 -0.000001 0.000000 -26.835516 -5.770618 -32.988513 54.749929 -8.270253 -6.223329 -20.373085 -6.601137 25.959247 -1.421722 -0.000013 -0.000002 -0.000000 -0.000001 0.000001 
1.334258 94.226837 4.968903 1.546163 -47.461400 5.613119 9.310408 13.514118 -4.352993 1.781057 3.670398 -1.552474 0.000000 0.000000 0.000000 1.745710 3.669437 -1.526468 -4.852180 13.507688 1.989611 5.455246 14.636201 -0.622791 0.000000 -0.000000 -0.000001 0.097886 3.823973 -2.193748 0.000000 0.000000 0.000000 0.257138 0.811129 -40.840252 -0.000013 -133.311892 -0.000008 -10.152882 -8.537444 13.607031 -6.141208 -11.690801 -6.761688 9.914116 42.595519 3.409868 -0.422809 8.108100 27.509106 0.000004 -0.000000 0.000001 0.255324 3.378219 -45.814354 5.654095 5.847754 -88.067455 2.162142 4.544824 -50.866372 -0.000001 0.000002 -0.000002 -0.461464 3.841590 -39.722697 6.450753 5.820357 -95.892857 2.182888 4.561564 -51.127723 -0.000001 0.000002 0.000001 0.469731 4.966829 -39.799454 8.181038 5.368609 -113.503011 3.200498 5.218128 -63.022982 0.000001 0.000000 0.000000 -3.762424 9.063695 -45.253838 5.342534 5.829010 -85.005311 8.716843 5.103330 -119.369167 -0.000000 -0.000001 -0.000002 0.200217 11.353361 -3.117912 0.000000 0.000000 0.000000 -51.036963 23.059963 69.349035 0.000013 106.457698 0.000004 -20.423608 15.369073 -21.891154 -7.341080 13.749667 7.412313 9.855756 -44.489100 -3.903267 -0.115777 -14.513075 -28.973867 0.000001 -0.000000 0.000001 -0.124367 -2.384791 45.108878 4.500595 -4.654546 88.071178 1.723232 -3.618380 50.920105 -0.000001 0.000000 0.000000 -0.761616 -2.932898 39.031048 5.133886 -4.632762 95.881656 1.739741 -3.631700 51.181374 0.000000 0.000001 0.000000 0.154761 -4.068816 39.122671 6.509727 -4.273600 113.462850 2.549585 -4.153934 63.067337 0.000000 -0.000001 -0.000000 -4.198871 -8.025516 44.637776 4.252913 -4.639639 85.014805 6.935984 -4.062635 119.322285 -0.000001 -0.000001 0.000001 -38.113494 11.730151 21.600868 59.240724 -9.557291 -1.604179 -22.616189 -7.275541 -9.544033 -1.594214 0.000007 -0.000005 -0.000000 0.000002 0.000000 -29.207665 -4.454088 -31.607008 54.559572 -6.236519 -7.918947 -19.699334 -6.256664 25.111385 -1.421722 -0.000012 -0.000002 -0.000000 -0.000001 0.000000 
1.643605 94.359459 4.962646 2.388771 -51.388062 6.164063 9.210655 13.436276 -4.351668 1.771370 3.585722 -1.596585 0.000000 0.000000 0.000000 1.740268 3.584194 -1.570212 -4.939231 14.320787 1.963290 5.901589 17.485824 -1.956385 0.000000 -0.000000 -0.000001 -0.027861 4.558141 -1.523012 0.000000 0.000000 0.000000 -2.682216 4.894934 -37.047127 0.000005 -131.773583 0.000008 -12.029659 -7.006941 9.958208 -6.141204 -11.690802 -6.761695 9.914115 42.595525 3.409872 -0.422810 8.108100 27.509106 0.000002 -0.000001 0.000000 0.255328 3.378215 -45.814354 5.654100 5.847752 -88.067455 2.162142 4.544818 -50.866369 -0.000001 -0.000001 0.000002 -0.461462 3.841587 -39.722697 6.450753 5.820355 -95.892864 2.182885 4.561574 -51.127719 0.000003 -0.000000 0.000000 0.469731 4.966828 -39.799458 8.181042 5.368612 -113.503004 3.200495 5.218130 -63.022989 -0.000001 -0.000001 0.000000 -3.762420 9.063692 -45.253838 5.342532 5.829009 -85.005311 8.716844 5.103330 -119.369167 0.000000 0.000001 -0.000001 0.408008 9.523257 -2.592241 0.000000 0.000000 0.000000 -52.008663 26.162971 72.996171 -0.000001 106.923791 0.000009 -20.167216 15.760641 -22.777337 -7.341079 13.749663 7.412313 9.855755 -44.489089 -3.903267 -0.115778 -14.513080 -28.973874 0.000000 -0.000002 -0.000001 -0.124367 -2.384790 45.108878 4.500596 -4.654542 88.071178 1.723229 -3.618380 50.920105 -0.000000 0.000002 0.000000 -0.761616 -2.932903 39.031055 5.133889 -4.632759 95.881649 1.739743 -3.631701 51.181374 0.000001 0.000001 0.000000 0.154761 -4.068818 39.122675 6.509727 -4.273601 113.462850 2.549582 -4.153931 63.067337 0.000002 -0.000002 -0.000005 -4.198870 -8.025516 44.637772 4.252911 -4.639636 85.014798 6.935984 -4.062635 119.322285 -0.000000 -0.000001 -0.000002 -37.069144 12.271230 22.304126 59.013825 -9.550201 -2.299757 -23.339352 -4.337036 -9.409898 -1.594214 0.000011 -0.000005 -0.000000 -0.000001 -0.000000 -31.768262 -3.602500 -29.704879 54.400254 -4.119539 -9.874693 -18.969320 -5.906803 24.249101 -1.421721 -0.000014 -0.000002 -0.000000 -0.000001 0.000001 
1.920353 94.404350 4.855301 3.227089 -54.963321 6.579729 9.097884 12.990328 -4.294330 1.764131 3.368149 -1.656707 0.000000 0.000000 0.000000 1.742111 3.364810 -1.629984 -5.053196 15.121586 2.024822 6.249760 20.624673 -3.332859 0.000000 0.000000 0.000000 -0.179994 5.325325 -0.579759 0.000000 0.000000 0.000000 -7.789435 6.885914 -33.013149 0.000005 -127.270248 -0.000005 -14.645179 -4.440915 5.722880 -6.141208 -11.690800 -6.761692 9.914120 42.595515 3.409871 -0.422811 8.108100 27.509106 0.000000 0.000000 -0.000000 0.255324 3.378224 -45.814351 5.654097 5.847750 -88.067455 2.162141 4.544813 -50.866369 -0.000003 0.000002 -0.000001 -0.461463 3.841592 -39.722690 6.450750 5.820356 -95.892864 2.182886 4.561567 -51.127719 -0.000003 -0.000001 0.000000 0.469726 4.966833 -39.799458 8.181044 5.368611 -113.503011 3.200492 5.218131 -63.022982 -0.000001 0.000002 0.000000 -3.762423 9.063695 -45.253835 5.342535 5.829010 -85.005311 8.716846 5.103328 -119.369167 -0.000001 0.000000 -0.000002 0.645876 8.044691 -2.081286 0.000000 0.000000 0.000000 -52.775663 29.458527 75.713856 0.000041 107.580718 -0.000055 -20.173249 16.137942 -23.571487 -7.341079 13.749663 7.412314 9.855756 -44.489096 -3.903267 -0.115777 -14.513080 -28.973871 0.000002 0.000000 0.000001 -0.124367 -2.384792 45.108881 4.500596 -4.654542 88.071178 1.723232 -3.618381 50.920109 0.000000 -0.000000 0.000000 -0.761616 -2.932904 39.031058 5.133887 -4.632759 95.881649 1.739747 -3.631703 51.181374 0.000001 -0.000000 0.000000 0.154761 -4.068818 39.122675 6.509727 -4.273603 113.462857 2.549580 -4.153932 63.067330 -0.000000 0.000002 -0.000001 -4.198871 -8.025518 44.637776 4.252910 -4.639638 85.014805 6.935981 -4.062633 119.322285 -0.000002 0.000000 0.000001 -36.156624 12.439051 22.825116 58.975692 -9.518517 -2.769331 -24.098161 -1.336480 -9.304617 -1.594214 0.000009 -0.000005 0.000000 0.000003 0.000000 -33.964700 -2.544430 -28.599624 54.633942 -1.936138 -9.922834 -18.428556 -5.132443 22.811958 -1.421722 -0.000012 -0.000002 -0.000000 -0.000000 0.000001 
